<svg width="24" height="27" viewBox="0 0 24 27" fill="none" xmlns="http://www.w3.org/2000/svg">
<path d="M12.2513 11.418H23.8027C23.8585 11.75 23.905 12.0869 23.9422 12.4287C23.9794 12.7705 23.998 13.1465 23.998 13.5566C23.998 15.3926 23.719 17.082 23.1609 18.625C22.6029 20.168 21.8077 21.4912 20.7753 22.5947C19.743 23.6982 18.5013 24.5625 17.0504 25.1875C15.6181 25.8125 14.0184 26.125 12.2513 26.125C10.5586 26.125 8.96821 25.793 7.48012 25.1289C5.99202 24.4453 4.69459 23.5225 3.58782 22.3604C2.48105 21.1982 1.60214 19.8359 0.951102 18.2734C0.318662 16.7109 0.00244141 15.041 0.00244141 13.2637C0.00244141 11.4863 0.318662 9.81641 0.951102 8.25391C1.60214 6.69141 2.48105 5.3291 3.58782 4.16699C4.69459 3.00488 5.99202 2.0918 7.48012 1.42773C8.96821 0.744141 10.5586 0.402344 12.2513 0.402344C13.0698 0.402344 13.8603 0.480469 14.623 0.636719C15.3856 0.792969 16.1111 1.01758 16.7993 1.31055C17.4876 1.60352 18.1293 1.95508 18.7245 2.36523C19.3384 2.77539 19.915 3.24414 20.4545 3.77148L17.1341 7.14062C16.6691 6.67188 16.0367 6.22266 15.2368 5.79297C14.437 5.36328 13.4418 5.14844 12.2513 5.14844C11.2097 5.14844 10.2238 5.36328 9.29374 5.79297C8.38228 6.22266 7.58243 6.80371 6.89418 7.53613C6.20594 8.26855 5.6572 9.12305 5.24798 10.0996C4.85735 11.0957 4.66204 12.1504 4.66204 13.2637C4.66204 14.3965 4.85735 15.4512 5.24798 16.4277C5.6572 17.4238 6.20594 18.2881 6.89418 19.0205C7.58243 19.7529 8.38228 20.334 9.29374 20.7637C10.2238 21.1738 11.2097 21.3789 12.2513 21.3789C13.4604 21.3789 14.4928 21.1836 15.3484 20.793C16.1855 20.3828 16.8784 19.8945 17.4271 19.3281C17.9758 18.7617 18.3897 18.1562 18.6687 17.5117C18.9478 16.8672 19.1245 16.3105 19.1989 15.8418H12.2513V11.418Z" fill="white"/>
</svg>
