<svg width="35" height="19" viewBox="0 0 35 19" fill="none" xmlns="http://www.w3.org/2000/svg">
<path fill-rule="evenodd" clip-rule="evenodd" d="M1.16788 0.99113C1.35403 0.91143 1.55406 0.869185 1.75654 0.866806C1.95903 0.864427 2.16 0.901961 2.34797 0.977265C2.53594 1.05257 2.70724 1.16417 2.85208 1.30569C2.99691 1.4472 3.11245 1.61587 3.19209 1.80205L1.7753 2.40946L3.19363 1.80205L3.19826 1.81438L3.23063 1.88375L3.37555 2.18284C3.50813 2.44801 3.71317 2.8365 3.99221 3.30671C4.728 4.54278 5.59087 5.69863 6.5668 6.75542C6.8593 7.07011 7.16268 7.37452 7.47638 7.66809C9.76113 9.80946 12.9539 11.6595 17.192 11.6595C18.8905 11.6672 20.5751 11.3523 22.1561 10.7314C24.0478 9.98676 25.6311 8.86596 26.9291 7.65113C28.6652 6.00381 30.0922 4.05887 31.1425 1.90842L31.1841 1.81901L31.1918 1.80205C31.3567 1.43206 31.6606 1.14184 32.0378 0.994134C32.415 0.846427 32.8352 0.853102 33.2075 1.01272C33.5798 1.17233 33.8743 1.47206 34.0273 1.8471C34.1804 2.22213 34.1797 2.64235 34.0254 3.01688L34.0223 3.02459L34.0162 3.03692L33.9992 3.07701L33.9375 3.21113C33.5951 3.92426 33.2138 4.61803 32.7952 5.2893C32.0246 6.52717 31.1416 7.69142 30.1574 8.7673L31.3861 9.996C31.6754 10.2851 31.838 10.6772 31.8381 11.0862C31.8383 11.4951 31.6759 11.8874 31.3869 12.1767C31.0978 12.466 30.7056 12.6286 30.2967 12.6287C29.8877 12.6289 29.4955 12.4665 29.2062 12.1775L27.9112 10.8825C26.9998 11.6191 26.0206 12.2674 24.9866 12.8188L26.1922 14.6719C26.306 14.8415 26.3849 15.032 26.4243 15.2324C26.4638 15.4328 26.4631 15.639 26.4222 15.8391C26.3813 16.0392 26.3011 16.2291 26.1862 16.398C26.0713 16.5668 25.924 16.7111 25.7528 16.8225C25.5817 16.9339 25.3901 17.0102 25.1892 17.047C24.9883 17.0837 24.7821 17.0802 24.5826 17.0366C24.3831 16.993 24.1942 16.9102 24.027 16.793C23.8597 16.6758 23.7175 16.5265 23.6084 16.3538L22.0883 14.0198C21.0415 14.3404 19.9238 14.567 18.7336 14.6734V17.0553C18.7336 17.4642 18.5712 17.8563 18.2821 18.1454C17.993 18.4345 17.6008 18.597 17.192 18.597C16.7831 18.597 16.391 18.4345 16.1018 18.1454C15.8127 17.8563 15.6503 17.4642 15.6503 17.0553V14.675C14.4555 14.567 13.3378 14.3404 12.2941 14.0198L10.7755 16.3538C10.5475 16.6845 10.1995 16.9131 9.80546 16.9911C9.41143 17.069 9.00255 16.9901 8.66584 16.7711C8.32913 16.5521 8.09117 16.2103 8.00262 15.8186C7.91407 15.4268 7.98191 15.0159 8.19171 14.6734L9.3973 12.8188C8.31813 12.2484 7.3438 11.5855 6.47276 10.8809L5.17775 12.1759C4.88699 12.4567 4.49756 12.6121 4.09334 12.6086C3.68912 12.6051 3.30246 12.443 3.01662 12.1571C2.73078 11.8713 2.56865 11.4846 2.56513 11.0804C2.56162 10.6762 2.71701 10.2868 2.99784 9.996L4.22655 8.7673C3.13588 7.57432 2.1699 6.27309 1.34363 4.88384C1.01457 4.32887 0.710552 3.75942 0.432505 3.17721L0.38163 3.06621L0.366213 3.03384L0.36313 3.02305L0.361588 3.01996C0.356963 3.01996 0.356963 3.01688 1.7753 2.40946L0.358505 3.01842C0.27852 2.83228 0.23601 2.6322 0.233404 2.42962C0.230798 2.22703 0.268147 2.02593 0.343316 1.83779C0.418485 1.64965 0.53 1.47817 0.671485 1.33316C0.81297 1.18815 0.981649 1.07091 1.16788 0.99113Z" fill="#037171"/>
</svg>
